<svg id="wave" style="transform:rotate(0deg); transition: 0.3s" viewBox="0 0 1440 490" version="1.1" xmlns="http://www.w3.org/2000/svg"><defs><linearGradient id="sw-gradient-0" x1="0" x2="0" y1="1" y2="0"><stop stop-color="rgba(53, 29, 145, 1)" offset="0%"></stop><stop stop-color="rgba(56.866, 21.975, 189.293, 1)" offset="100%"></stop></linearGradient></defs><path style="transform:translate(0, 0px); opacity:1" fill="url(#sw-gradient-0)" d="M0,0L240,65.3C480,131,960,261,1440,302.2C1920,343,2400,294,2880,294C3360,294,3840,343,4320,359.3C4800,376,5280,359,5760,326.7C6240,294,6720,245,7200,253.2C7680,261,8160,327,8640,294C9120,261,9600,131,10080,81.7C10560,33,11040,65,11520,65.3C12000,65,12480,33,12960,73.5C13440,114,13920,229,14400,302.2C14880,376,15360,408,15840,359.3C16320,310,16800,180,17280,106.2C17760,33,18240,16,18720,32.7C19200,49,19680,98,20160,98C20640,98,21120,49,21600,32.7C22080,16,22560,33,23040,40.8C23520,49,24000,49,24480,57.2C24960,65,25440,82,25920,114.3C26400,147,26880,196,27360,245C27840,294,28320,343,28800,334.8C29280,327,29760,261,30240,269.5C30720,278,31200,359,31680,367.5C32160,376,32640,310,33120,253.2C33600,196,34080,147,34320,122.5L34560,98L34560,490L34320,490C34080,490,33600,490,33120,490C32640,490,32160,490,31680,490C31200,490,30720,490,30240,490C29760,490,29280,490,28800,490C28320,490,27840,490,27360,490C26880,490,26400,490,25920,490C25440,490,24960,490,24480,490C24000,490,23520,490,23040,490C22560,490,22080,490,21600,490C21120,490,20640,490,20160,490C19680,490,19200,490,18720,490C18240,490,17760,490,17280,490C16800,490,16320,490,15840,490C15360,490,14880,490,14400,490C13920,490,13440,490,12960,490C12480,490,12000,490,11520,490C11040,490,10560,490,10080,490C9600,490,9120,490,8640,490C8160,490,7680,490,7200,490C6720,490,6240,490,5760,490C5280,490,4800,490,4320,490C3840,490,3360,490,2880,490C2400,490,1920,490,1440,490C960,490,480,490,240,490L0,490Z"></path></svg>